<svg width="40" height="40" viewBox="0 0 40 40" fill="none" xmlns="http://www.w3.org/2000/svg">
<path d="M20 36.6667V25L16.6667 21.6667" stroke="black" stroke-width="2" stroke-linecap="round" stroke-linejoin="round"/>
<path d="M28.3333 13.3333V14.6667C30.2709 15.7787 31.7802 17.5075 32.6207 19.5773C33.4612 21.6472 33.5844 23.9388 32.9707 26.0869C32.357 28.2349 31.0417 30.1155 29.2345 31.4289C27.4274 32.7423 25.2326 33.4127 23 33.3333H16.6667C14.3816 33.1782 12.2044 32.3028 10.448 30.8329C8.69151 29.3631 7.44609 27.3743 6.8906 25.1524C6.33511 22.9304 6.49813 20.5895 7.35624 18.466C8.21436 16.3425 9.72342 14.5456 11.6667 13.3333C11.6667 11.1232 12.5446 9.00358 14.1074 7.44078C15.6702 5.87797 17.7899 5 20 5C22.2101 5 24.3298 5.87797 25.8926 7.44078C27.4554 9.00358 28.3333 11.1232 28.3333 13.3333Z" stroke="black" stroke-width="2" stroke-linecap="round" stroke-linejoin="round"/>
<path d="M23.3333 23.3333L20 26.6667" stroke="black" stroke-width="2" stroke-linecap="round" stroke-linejoin="round"/>
</svg>
