<svg width="16" height="16" viewBox="0 0 16 16" fill="none" xmlns="http://www.w3.org/2000/svg">
<path fill-rule="evenodd" clip-rule="evenodd" d="M8.75 8.75H7.25V8.639C7.25 7.982 7.4795 7.51475 8 7.25C8.28875 7.10375 8.75 6.824 8.75 6.5C8.75 6.08675 8.414 5.75 8 5.75C7.586 5.75 7.25 6.08675 7.25 6.5H5.75C5.75 5.2595 6.7595 4.25 8 4.25C9.2405 4.25 10.25 5 10.25 6.5C10.25 8 8.75 8.12375 8.75 8.75ZM7.25 11.75H8.75V10.25H7.25V11.75ZM8 2C4.6865 2 2 4.6865 2 8C2 11.3135 4.6865 14 8 14C11.3135 14 14 11.3135 14 8C14 4.6865 11.3135 2 8 2Z" fill="#5C5F62"/>
</svg>
